<svg width="900" height="1200" viewBox="0 0 900 1200" fill="none" xmlns="http://www.w3.org/2000/svg">
  <defs>
    <linearGradient id="bg" x1="0" y1="0" x2="0" y2="1">
      <stop offset="0%" stop-color="#F7F7FA"/>
      <stop offset="100%" stop-color="#ECEEF4"/>
    </linearGradient>
    <radialGradient id="glow" cx="0" cy="0" r="1" gradientTransform="translate(450 760) rotate(90) scale(370 420)" gradientUnits="userSpaceOnUse">
      <stop offset="0%" stop-color="#FFCF9B" stop-opacity="0.95"/>
      <stop offset="100%" stop-color="#FFCF9B" stop-opacity="0"/>
    </radialGradient>
    <linearGradient id="phoneBody" x1="0" y1="0" x2="1" y2="1">
      <stop offset="0%" stop-color="#2C2F40"/>
      <stop offset="100%" stop-color="#0E1017"/>
    </linearGradient>
    <linearGradient id="screen" x1="0" y1="0" x2="0" y2="1">
      <stop offset="0%" stop-color="#BDE7FF"/>
      <stop offset="100%" stop-color="#68A3D2"/>
    </linearGradient>
    <linearGradient id="food" x1="0" y1="0" x2="1" y2="1">
      <stop offset="0%" stop-color="#F7C46B"/>
      <stop offset="100%" stop-color="#D97C23"/>
    </linearGradient>
  </defs>

  <rect width="900" height="1200" fill="url(#bg)"/>
  <ellipse cx="452" cy="790" rx="360" ry="240" fill="url(#glow)"/>

  <g transform="translate(450 650) rotate(23)">
    <rect x="-210" y="-335" width="420" height="710" rx="44" fill="url(#phoneBody)"/>
    <rect x="-180" y="-295" width="360" height="620" rx="28" fill="url(#screen)"/>
    <circle cx="0" cy="345" r="26" fill="#1A1F2D"/>
    <circle cx="0" cy="345" r="18" stroke="#484E62" stroke-width="3"/>
  </g>

  <g transform="translate(445 560)">
    <ellipse cx="0" cy="0" rx="135" ry="86" fill="#FFE7B9"/>
    <ellipse cx="0" cy="6" rx="142" ry="80" fill="#F9BA61" opacity="0.68"/>
    <rect x="-118" y="-26" width="236" height="52" rx="26" fill="url(#food)"/>
    <ellipse cx="0" cy="-34" rx="118" ry="32" fill="#F4CE8B"/>
  </g>

  <g fill="#E54A3F">
    <path d="M335 520C335 491 358 468 387 468C416 468 439 491 439 520C439 564 387 604 387 604C387 604 335 564 335 520Z"/>
    <path d="M490 460C490 434 511 413 537 413C563 413 584 434 584 460C584 499 537 536 537 536C537 536 490 499 490 460Z"/>
    <path d="M250 620C250 597 268 579 291 579C314 579 332 597 332 620C332 655 291 688 291 688C291 688 250 655 250 620Z"/>
    <circle cx="387" cy="520" r="15" fill="#F8F9FC"/>
    <circle cx="537" cy="460" r="13" fill="#F8F9FC"/>
    <circle cx="291" cy="620" r="11" fill="#F8F9FC"/>
  </g>

  <g fill="#7EA16A" opacity="0.95">
    <rect x="255" y="380" width="70" height="30" rx="10" transform="rotate(18 255 380)"/>
    <rect x="575" y="325" width="90" height="36" rx="12" transform="rotate(20 575 325)"/>
    <rect x="608" y="600" width="72" height="28" rx="10" transform="rotate(-16 608 600)"/>
    <rect x="190" y="760" width="88" height="34" rx="10" transform="rotate(15 190 760)"/>
  </g>

  <g transform="translate(610 990)">
    <g stroke="#B00036" stroke-linecap="round" stroke-linejoin="round">
      <line x1="-76" y1="-88" x2="80" y2="72" stroke-width="7"/>
      <line x1="-104" y1="66" x2="68" y2="-84" stroke-width="3"/>
      <path d="M0 166L-44 94L0 26L44 94L0 166Z" stroke-width="4"/>
      <circle cx="0" cy="0" r="58" stroke-width="4"/>
      <circle cx="0" cy="0" r="46" stroke-width="10"/>
      <circle cx="0" cy="0" r="27" stroke-width="3"/>
      <circle cx="0" cy="0" r="13" fill="#B00036" stroke-width="3"/>
    </g>
  </g>

  <g fill="#730029" transform="translate(455 1065)">
    <text x="-130" y="0" font-size="72" font-family="Arial, sans-serif" font-weight="700">spot</text>
    <text x="-130" y="36" font-size="18" font-family="Arial, sans-serif" font-style="italic">Know to go, Where to go</text>
  </g>
</svg>
